<svg width="218" height="90" viewBox="0 0 218 90" fill="none" xmlns="http://www.w3.org/2000/svg">
<path opacity="0.1" d="M46.3363 0H39.7457V89.8856H46.3363V0Z" fill="#004FF0"/>
<path opacity="0.1" d="M36.4672 0H29.8766V89.8856H36.4672V0Z" fill="#004FF0"/>
<path opacity="0.1" d="M6.59062 0H0V89.8856H6.59062V0Z" fill="#004FF0"/>
<path opacity="0.1" d="M16.527 0H9.9364V89.8856H16.527V0Z" fill="#004FF0"/>
<path d="M66.2092 0H59.6185V89.8856H66.2092V0Z" fill="#004FF0"/>
<path d="M56.2727 0H49.6821V89.8856H56.2727V0Z" fill="#004FF0"/>
<path d="M26.4634 0H19.8728V89.8856H26.4634V0Z" fill="#004FF0"/>
<path d="M16.527 0H9.9364V81.4908H16.527V0Z" fill="#004FF0"/>
<path d="M46.3363 21.2057H39.7457V39.9342H46.3363V21.2057Z" fill="#004FF0"/>
<path d="M36.3998 21.2057H29.8092V39.9342H36.3998V21.2057Z" fill="#004FF0"/>
<path d="M36.3998 72.4633H29.8092V89.8857H36.3998V72.4633Z" fill="#004FF0"/>
<path d="M6.59062 21.2057H0V39.9342H6.59062V21.2057Z" fill="#004FF0"/>
<path fill-rule="evenodd" clip-rule="evenodd" d="M204.067 86.7014V89.8789H202.916V86.8091C202.916 85.6916 202.572 85.2001 201.623 85.2001C200.553 85.2001 200.115 85.9474 200.115 86.9168V89.8722H198.964V81.5043H200.115V85.254C200.27 84.7626 200.963 84.3182 201.623 84.2711C203.118 84.1701 204.067 84.8972 204.067 86.7014ZM157.535 85.3415C157.455 85.2944 157.212 85.2203 157.01 85.2203C156.061 85.2203 155.617 86.1224 155.617 87.2399V89.8856H154.466V84.3721H155.617V85.153C155.751 84.6414 156.344 84.2711 157.004 84.2711C157.306 84.2711 157.63 84.3519 157.784 84.4394L157.535 85.3415ZM147.936 83.8133C147.936 82.9449 147.936 82.743 148.272 82.1977C148.629 81.6052 149.208 81.4033 149.868 81.4033C150.171 81.4033 150.379 81.4841 150.527 81.5716V82.4669C150.359 82.3862 150.083 82.2919 149.726 82.4333C149.181 82.6756 149.093 82.9045 149.093 83.8133V84.3721H150.534V85.3079H149.093V89.8856H147.942V85.3079H147.276V84.3721H147.942V83.8133H147.936ZM87.3341 89.8856H86.0955V82.541H83.5104V81.5177H89.926V82.541H87.3409V89.8856H87.3341ZM91.8513 85.2607C92.0062 84.7693 92.6995 84.325 93.3593 84.2779C94.8538 84.1634 95.803 84.8905 95.803 86.7014V89.8789H94.6518V86.8091C94.6518 85.6916 94.3085 85.2001 93.3593 85.2001C92.2889 85.2001 91.8513 85.9474 91.8513 86.9168V89.8722H90.7001V81.5043H91.8513V85.2607ZM99.6874 84.2711C101.397 84.2711 102.178 85.2203 102.407 86.6071C102.441 86.7889 102.454 86.9639 102.454 87.1457V87.5563H98.1121C98.1121 88.5729 99.0815 89.0643 99.7951 89.0643C100.32 89.0643 100.899 88.7883 101.209 88.3373L102.003 89.0508C101.633 89.5557 101.034 90.0001 99.7951 90.0001C98.0111 90.0001 96.9138 88.7816 96.9138 87.1457C96.9205 85.4963 97.9774 84.2711 99.6874 84.2711ZM101.249 86.6004C101.249 85.705 100.536 85.2136 99.6874 85.2136C98.8391 85.2136 98.139 85.7858 98.139 86.6004H101.249ZM108.823 88.2228L109.974 84.8299L110.122 84.3721H110.95L111.105 84.8299L112.256 88.2228L113.562 84.3721H114.713L112.613 89.8856H111.913L110.539 86.3177L109.179 89.8856H108.479L106.372 84.3721H107.53L108.823 88.2228ZM118.133 84.2711C119.715 84.2711 121.001 85.4963 121.001 87.139C121.001 88.7816 119.715 89.9933 118.133 89.9933C116.551 89.9933 115.265 88.7748 115.265 87.139C115.265 85.4963 116.551 84.2711 118.133 84.2711ZM118.133 89.0576C119.082 89.0576 119.85 88.2565 119.85 87.139C119.85 86.008 119.082 85.2203 118.133 85.2203C117.184 85.2203 116.416 86.0147 116.416 87.139C116.416 88.2565 117.184 89.0576 118.133 89.0576ZM123.377 85.153C123.512 84.6414 124.104 84.2711 124.764 84.2711C125.067 84.2711 125.39 84.3519 125.545 84.4394L125.303 85.3415C125.222 85.2944 124.979 85.2203 124.777 85.2203C123.828 85.2203 123.384 86.1224 123.384 87.2399V89.8856H122.233V84.3721H123.384V85.153H123.377ZM127.484 89.8856H126.326V81.3023H127.484V89.8856ZM131.691 84.2711C132.237 84.2711 132.91 84.5067 133.273 84.8097V81.5177H134.431V89.8856H133.273V89.475C132.836 89.7981 132.237 90.0001 131.691 90.0001C130.109 90.0001 128.938 88.7816 128.938 87.1457C128.938 85.4963 130.109 84.2711 131.691 84.2711ZM131.799 89.0576C132.425 89.0576 132.984 88.7681 133.273 88.1757C133.428 87.8727 133.516 87.516 133.516 87.139C133.516 86.762 133.428 86.3984 133.273 86.0888C132.984 85.4963 132.425 85.2203 131.799 85.2203C130.863 85.2203 130.089 86.0147 130.089 87.139C130.096 88.2565 130.863 89.0576 131.799 89.0576ZM136 82.7295C136 82.3054 136.343 81.962 136.767 81.962C137.211 81.962 137.562 82.3054 137.562 82.7295C137.562 82.9113 137.514 83.0661 137.427 83.1873L136.377 84.702H136L136.41 83.4296C136.168 83.3017 136 83.0392 136 82.7295ZM140.604 89.0105C141.15 89.0105 141.607 88.8085 141.729 88.519C141.809 88.3171 141.742 88.1084 141.742 88.0814C141.607 87.7448 141.116 87.6775 140.557 87.5563C139.81 87.388 139.063 87.1995 138.773 86.4186C138.625 86.0147 138.672 85.5502 138.874 85.1597C139.332 84.2981 140.47 84.2644 140.604 84.2644C141.372 84.2644 142.099 84.5539 142.611 85.079L141.863 85.8262C141.554 85.4223 141.096 85.2473 140.604 85.2473C140.591 85.2473 139.938 85.2607 139.743 85.6243C139.675 85.7387 139.642 85.9272 139.696 86.082C139.81 86.3917 140.308 86.4927 140.847 86.6206C141.574 86.7889 142.361 86.9572 142.651 87.7381C142.671 87.8054 142.866 88.3507 142.631 88.9095C142.341 89.5692 141.574 89.9933 140.611 89.9933H140.598C139.83 89.9933 139.123 89.6702 138.598 89.1586L139.346 88.4113C139.669 88.8152 140.113 89.0105 140.604 89.0105ZM152.264 81.7264C152.621 81.7264 152.897 82.0024 152.897 82.3525C152.897 82.7093 152.621 82.992 152.264 82.992C151.921 82.992 151.638 82.7093 151.638 82.3525C151.645 82.0024 151.921 81.7264 152.264 81.7264ZM152.85 89.8856H151.699V84.3721H152.85V89.8856ZM160.269 89.0105C160.814 89.0105 161.272 88.8085 161.393 88.519C161.474 88.3171 161.406 88.1084 161.406 88.0814C161.272 87.7448 160.78 87.6775 160.221 87.5563C159.474 87.388 158.727 87.1995 158.437 86.4186C158.289 86.0147 158.336 85.5502 158.538 85.1597C158.996 84.2981 160.134 84.2644 160.269 84.2644C161.036 84.2644 161.763 84.5539 162.275 85.079L161.527 85.8262C161.218 85.4223 160.76 85.2473 160.269 85.2473C160.255 85.2473 159.602 85.2607 159.407 85.6243C159.34 85.7387 159.306 85.9272 159.36 86.082C159.474 86.3917 159.972 86.4927 160.511 86.6206C161.238 86.7889 162.026 86.9572 162.322 87.7381C162.342 87.8054 162.531 88.3507 162.302 88.9095C162.012 89.5692 161.238 89.9933 160.282 89.9933H160.269C159.501 89.9933 158.794 89.6702 158.269 89.1586L159.016 88.4113C159.333 88.8152 159.777 89.0105 160.269 89.0105ZM164.032 82.6285H165.183V84.3721H166.624V85.3079H165.183V87.4756C165.183 88.3911 165.27 88.7277 165.816 88.9701C166.173 89.1182 166.449 89.0172 166.617 88.9364V89.8318C166.469 89.9193 166.26 90.0001 165.957 90.0001C165.297 90.0001 164.718 89.7914 164.362 89.2057C164.025 88.6469 164.025 88.344 164.025 87.4756V85.3079H163.359V84.3721H164.025V82.6285H164.032ZM175.442 81.41C176.661 81.41 177.765 81.8341 178.546 82.6958L177.731 83.5104C177.24 82.7968 176.345 82.44 175.442 82.44C173.712 82.44 172.433 83.9816 172.433 85.6983C172.433 87.2736 173.591 88.9701 175.442 88.9701C176.244 88.9701 177.274 88.6604 177.718 87.9131L178.532 88.7277C177.765 89.5759 176.661 90.0001 175.442 90.0001C173.086 90.0001 171.195 88.1353 171.195 85.705C171.195 83.2748 173.086 81.41 175.442 81.41ZM186.422 84.5943C186.422 86.2907 185.103 87.6641 183.474 87.6775H181.468V89.8856H180.215V81.5177H183.474C185.11 81.5245 186.422 82.8978 186.422 84.5943ZM181.468 82.541V86.6475H183.454C184.409 86.6475 185.184 85.7252 185.184 84.5943C185.184 83.47 184.416 82.541 183.454 82.541H181.468ZM191.29 81.511L194.723 89.8789H193.383L192.548 87.691H189.257L188.428 89.8789H187.089L190.522 81.511H191.29ZM192.158 86.6677L190.906 83.3623L189.647 86.6677H192.158ZM206.591 87.4419C206.591 88.5594 206.935 89.0508 207.884 89.0508C208.954 89.0508 209.392 88.3036 209.392 87.3342V84.3788H210.543V89.8923H209.392V88.997C209.237 89.4884 208.544 89.9327 207.884 89.9799C206.389 90.0943 205.44 89.3672 205.44 87.5563V84.3788H206.591V87.4419ZM213.283 84.803C213.653 84.5 214.333 84.2644 214.865 84.2644C216.447 84.2644 217.618 85.4896 217.618 87.1322C217.618 88.7748 216.447 89.9866 214.865 89.9866C214.326 89.9866 213.714 89.7846 213.283 89.4615V89.8722H212.132V81.5043H213.283V84.803ZM213.283 88.1757C213.586 88.7681 214.131 89.0576 214.757 89.0576C215.707 89.0576 216.474 88.2565 216.474 87.139C216.474 86.008 215.707 85.2203 214.757 85.2203C214.131 85.2203 213.586 85.4963 213.283 86.0888C213.128 86.3984 213.041 86.7552 213.041 87.139C213.041 87.516 213.128 87.8727 213.283 88.1757Z" fill="#004FF0"/>
<path fill-rule="evenodd" clip-rule="evenodd" d="M186.799 46.7133C186.86 46.821 186.894 46.9893 186.894 47.2115V47.4269C186.894 47.575 186.9 47.6692 186.914 47.7231C186.934 47.8039 186.974 47.8645 187.035 47.9049V47.9856H186.308C186.288 47.9183 186.274 47.8577 186.268 47.8173C186.247 47.7298 186.241 47.6356 186.241 47.5413L186.234 47.2451C186.234 47.0432 186.193 46.9085 186.126 46.8412C186.059 46.7739 185.931 46.7402 185.749 46.7402H185.103V47.9789H184.457V44.8149H185.971C186.187 44.8216 186.355 44.8485 186.469 44.8957C186.584 44.9428 186.685 45.0168 186.766 45.1178C186.833 45.1986 186.887 45.2861 186.927 45.3871C186.968 45.4813 186.988 45.5958 186.988 45.717C186.988 45.8651 186.947 46.0132 186.873 46.1613C186.799 46.3094 186.671 46.4104 186.496 46.4709C186.638 46.5248 186.739 46.6056 186.799 46.7133ZM186.133 45.414C186.066 45.3804 185.965 45.3602 185.83 45.3602H185.103V46.2084H185.816C185.958 46.2084 186.066 46.1882 186.133 46.1545C186.261 46.0939 186.321 45.9795 186.321 45.7977C186.315 45.6092 186.254 45.4813 186.133 45.414ZM182.881 46.5181C182.881 48.0126 184.093 49.2311 185.594 49.2311V50.2139C183.555 50.2139 181.898 48.5579 181.898 46.5181C181.898 44.4783 183.555 42.8222 185.594 42.8222V43.8051C184.1 43.8051 182.881 45.0236 182.881 46.5181ZM177.691 57.8884C177.691 62.2103 173.881 64.6204 169.141 64.6204C166.132 64.6204 163.13 63.1393 160.76 60.7697L164.867 56.6632C166.051 58.1038 167.748 59.2011 169.141 59.329C170.535 59.457 171.726 58.8645 171.935 58.225C172.447 56.6161 169.525 56.5285 168.63 56.2794C165.284 55.2629 161.393 53.8627 161.393 49.7158C161.393 44.761 166.556 43.0646 169.141 43.0646C172.103 43.0646 175.113 44.4177 177.523 46.8749L173.457 50.941C172.353 49.5003 170.447 48.3559 169.141 48.3559C168.461 48.3559 167.108 48.6117 167.108 49.9648C167.108 52.4691 177.691 51.2843 177.691 57.8884ZM153.072 62.8835C152.311 63.8597 150.15 64.6204 148.757 64.6204C142.617 64.6204 138.127 60.0494 138.127 53.8627C138.127 47.6827 142.193 43.0646 148.333 43.0646C149.686 43.0646 152.352 43.7849 153.072 44.8014V33.5388H158.889V64.2838H153.072V62.8835ZM149.174 47.8106C146.549 47.8106 144.435 50.5236 144.435 53.8694C144.435 57.1748 146.549 59.8811 149.174 59.8811C152.056 59.8811 153.914 56.6632 153.914 53.8694C153.914 51.0689 152.096 47.8106 149.174 47.8106ZM129.685 62.8028C128.709 63.8193 126.972 64.58 125.027 64.58C119.311 64.58 117.11 62.042 117.11 58.1442C117.11 53.7415 120.664 50.7727 126.427 50.7727H129.685C129.685 49.2041 128.5 48.1876 126.723 48.1876C124.899 48.1876 124.01 48.5242 123.081 49.5407L118.423 46.8749C120.752 44.2494 123.882 43.0242 127.147 43.0242C133.415 43.0242 135.953 46.4575 135.953 49.6754V64.2838H129.685V62.8028ZM129.685 55.5187H126.003C124.353 55.5187 123.121 56.6632 123.377 58.2721C123.546 59.4166 124.562 59.8811 126.003 59.8811C128.756 59.8811 129.685 58.3125 129.685 57.3835V55.5187ZM115.178 55.2629H100.273C100.273 57.7201 102.771 59.457 104.844 59.457C106.877 59.457 108.742 58.6491 109.711 56.8719L113.905 60.7293C112.209 63.0182 109.631 64.6271 104.844 64.6271C97.9842 64.6271 93.7969 60.0561 93.7969 53.8694C93.7969 47.6894 97.863 43.0713 104.467 43.0713C111.071 43.0713 115.178 47.6019 115.178 53.8694V55.2629ZM104.467 48.2347C102.178 48.2347 100.785 49.4599 100.401 51.2843H108.614C108.277 49.2916 106.837 48.2347 104.467 48.2347ZM168.805 26.9347H162.537V25.4537C161.561 26.4702 159.824 27.2309 157.879 27.2309C152.163 27.2309 149.962 24.6929 149.962 20.7951C149.962 16.3924 153.516 13.4236 159.279 13.4236H162.537C162.537 11.855 161.352 10.8385 159.575 10.8385C157.758 10.8385 156.869 11.1751 155.933 12.1916L151.275 9.52577C153.604 6.90029 156.734 5.67507 159.999 5.67507C166.267 5.67507 168.805 9.10838 168.805 12.3263V26.9347ZM162.537 18.1696H158.855C157.206 18.1696 155.974 19.3141 156.229 20.923C156.398 22.0675 157.414 22.532 158.855 22.532C161.608 22.532 162.537 20.9634 162.537 20.0344V18.1696ZM149.686 11.0135C148.117 10.3336 147.821 10.4615 147.101 10.4615C144.563 10.4615 143.082 11.8146 143.082 15.1604V26.9347H136.814V6.01167H143.082V7.87643C143.89 6.43578 146.091 5.71546 147.485 5.71546C148.797 5.71546 149.558 5.75585 150.534 6.30788L149.686 11.0135ZM131.812 10.4615C129.275 10.4615 127.793 11.8146 127.793 15.1604V26.9347H121.526V6.01167H127.793V7.87643C128.601 6.43578 130.803 5.71546 132.196 5.71546C133.509 5.71546 134.27 5.75585 135.246 6.30788L134.398 11.0068C132.829 10.3336 132.533 10.4615 131.812 10.4615ZM108.506 22.1079C110.539 22.1079 112.404 21.3068 113.374 19.5228L117.568 23.3735C115.871 25.6624 113.293 27.2713 108.506 27.2713C101.646 27.2713 97.4591 22.7003 97.4591 16.5136C97.4591 10.3336 101.525 5.71546 108.129 5.71546C114.733 5.71546 118.84 10.2461 118.84 16.5136V17.9138H103.935C103.935 20.371 106.433 22.1079 108.506 22.1079ZM112.276 13.9352C111.94 11.9426 110.499 10.8856 108.129 10.8856C105.84 10.8856 104.447 12.1109 104.063 13.9352H112.276ZM90.6261 18.0417C90.6261 19.5699 90.5858 22.1079 92.915 22.1079C94.1335 22.1079 95.6482 21.8588 95.6482 21.8588L95.5809 26.2144C94.6048 26.7664 93.4199 27.2713 92.1543 27.2713C86.7755 27.2713 84.3654 24.9824 84.3654 18.0417V11.1818H82.0361V6.01167H84.3654V0H90.6329V6.01167H96.0791V11.1818H90.6329V18.0417H90.6261ZM84.978 33.1079H91.0772V64.2838H84.978V33.1079Z" fill="#004FF0"/>
</svg>
